<svg width="951" height="280" viewBox="0 0 951 280" fill="none" xmlns="http://www.w3.org/2000/svg">
<rect x="449.944" y="79" width="52" height="172" fill="black" stroke="black"/>
<line x1="95.9441" y1="95.5" x2="855.944" y2="95.5" stroke="black" stroke-width="190" stroke-linecap="round"/>
<line x1="119.944" y1="94.5" x2="831.944" y2="94.5" stroke="#5D5D5D" stroke-width="128" stroke-linecap="round"/>
<path d="M165.977 50.144C166.83 48.608 168.067 47.584 169.689 47.072C171.31 46.56 173.315 46.304 175.705 46.304C178.179 46.304 180.142 46.5173 181.593 46.944C183.129 47.3707 184.238 47.8827 184.921 48.48C185.689 49.0773 186.243 49.9733 186.585 51.168C187.097 52.5333 187.353 54.7093 187.353 57.696V128.736C187.353 130.784 187.267 132.277 187.097 133.216C187.011 134.155 186.627 135.264 185.945 136.544C184.75 138.848 181.422 140 175.961 140C172.633 140 170.329 139.744 169.049 139.232C167.769 138.72 166.702 137.909 165.849 136.8C146.649 111.2 134.019 94.4747 127.961 86.624V128.736C127.961 130.784 127.875 132.277 127.705 133.216C127.619 134.155 127.235 135.264 126.553 136.544C125.358 138.848 122.03 140 116.569 140C111.278 140 108.035 138.848 106.841 136.544C106.158 135.264 105.731 134.112 105.561 133.088C105.475 132.064 105.433 130.571 105.433 128.608V57.184C105.433 53.9413 105.817 51.5947 106.585 50.144C107.438 48.608 108.675 47.584 110.297 47.072C111.918 46.56 114.009 46.304 116.569 46.304C119.129 46.304 121.134 46.56 122.585 47.072C124.121 47.4987 125.187 48.0107 125.785 48.608C126.126 48.864 127.107 49.9733 128.729 51.936C146.734 76.4267 158.766 92.5973 164.825 100.448V57.184C164.825 53.9413 165.209 51.5947 165.977 50.144ZM262.582 98.272C262.582 103.477 261.259 107.36 258.614 109.92C256.054 112.395 253.195 113.632 250.038 113.632H219.702C219.702 116.021 221.11 118.027 223.926 119.648C226.742 121.269 229.558 122.08 232.374 122.08C237.323 122.08 241.206 121.568 244.022 120.544L245.43 120.032C247.478 119.093 249.184 118.624 250.55 118.624C253.28 118.624 255.627 120.544 257.59 124.384C258.699 126.688 259.254 128.651 259.254 130.272C259.254 137.867 250.166 141.664 231.99 141.664C225.675 141.664 220.043 140.597 215.094 138.464C210.23 136.245 206.432 133.344 203.702 129.76C198.326 122.848 195.638 115.125 195.638 106.592C195.638 95.84 199.094 87.264 206.006 80.864C213.003 74.3787 221.707 71.136 232.118 71.136C243.979 71.136 252.683 75.3173 258.229 83.68C261.131 88.1173 262.582 92.9813 262.582 98.272ZM235.574 101.984C238.816 101.984 240.438 100.619 240.438 97.888C240.438 95.9253 239.67 94.3467 238.134 93.152C236.683 91.9573 234.55 91.36 231.734 91.36C229.003 91.36 226.272 92.512 223.542 94.816C220.811 97.0347 219.446 99.424 219.446 101.984H235.574ZM316.757 73.312C318.378 73.824 319.701 74.72 320.725 76C321.834 77.1947 322.389 79.1573 322.389 81.888C322.389 84.6187 321.578 87.6053 319.957 90.848C318.335 94.0907 315.989 95.712 312.917 95.712C311.381 95.712 309.887 95.3707 308.437 94.688C307.071 94.0053 305.237 93.664 302.933 93.664C300.629 93.664 298.453 94.4747 296.405 96.096C294.442 97.7173 293.461 99.68 293.461 101.984V128.864C293.461 130.827 293.375 132.32 293.205 133.344C293.119 134.283 292.735 135.392 292.053 136.672C290.773 138.891 287.445 140 282.069 140C277.973 140 275.029 139.275 273.237 137.824C271.871 136.629 271.103 134.795 270.933 132.32C270.933 131.467 270.933 130.229 270.933 128.608V83.68C270.933 81.7173 270.975 80.2667 271.061 79.328C271.231 78.304 271.615 77.1947 272.213 76C273.407 73.696 276.735 72.544 282.197 72.544C287.317 72.544 290.517 73.5253 291.797 75.488C292.735 76.8533 293.205 78.2613 293.205 79.712C293.631 79.1147 294.229 78.3893 294.997 77.536C295.85 76.6827 297.599 75.5307 300.245 74.08C302.89 72.6293 305.194 71.904 307.157 71.904C309.205 71.904 310.911 72.032 312.277 72.288C313.642 72.4587 315.135 72.8 316.757 73.312ZM370.742 44.512C371.424 43.232 372.576 42.336 374.198 41.824C375.819 41.312 377.952 41.056 380.598 41.056C383.328 41.056 385.504 41.312 387.126 41.824C388.747 42.336 389.856 43.232 390.454 44.512C391.136 45.792 391.52 46.944 391.606 47.968C391.776 48.9067 391.862 50.3573 391.862 52.32V128.736C391.862 130.699 391.776 132.192 391.606 133.216C391.52 134.155 391.136 135.221 390.454 136.416C389.174 138.72 385.547 139.872 379.574 139.872C373.686 139.872 370.4 137.781 369.718 133.6C366.134 137.696 361.142 139.744 354.742 139.744C347.062 139.744 340.064 136.416 333.75 129.76C327.435 123.019 324.278 115.211 324.278 106.336C324.278 97.376 327.435 89.5253 333.75 82.784C340.15 76.0427 347.147 72.672 354.742 72.672C361.056 72.672 365.963 74.8053 369.462 79.072V52.192C369.462 50.2293 369.504 48.7787 369.59 47.84C369.76 46.816 370.144 45.7067 370.742 44.512ZM350.006 114.016C352.224 116.32 354.912 117.472 358.069 117.472C361.227 117.472 363.83 116.32 365.878 114.016C368.011 111.712 369.078 109.195 369.078 106.464C369.078 103.648 368.054 101.045 366.006 98.656C364.043 96.2667 361.355 95.072 357.942 95.072C354.528 95.072 351.798 96.2667 349.75 98.656C347.702 100.96 346.678 103.52 346.678 106.336C346.678 109.152 347.787 111.712 350.006 114.016ZM403.466 126.816C401.247 124.085 400.138 121.653 400.138 119.52C400.138 117.301 401.972 114.4 405.642 110.816C407.775 108.768 410.036 107.744 412.426 107.744C414.815 107.744 418.143 109.877 422.41 114.144C423.604 115.595 425.311 117.003 427.53 118.368C429.748 119.648 431.796 120.288 433.674 120.288C441.61 120.288 445.578 117.045 445.578 110.56C445.578 108.597 444.468 106.976 442.25 105.696C440.116 104.331 437.428 103.349 434.186 102.752C430.943 102.155 427.444 101.216 423.69 99.936C419.935 98.5707 416.436 96.992 413.194 95.2C409.951 93.408 407.22 90.592 405.002 86.752C402.868 82.8267 401.802 78.1333 401.802 72.672C401.802 65.1627 404.575 58.6347 410.122 53.088C415.754 47.456 423.391 44.64 433.034 44.64C438.154 44.64 442.804 45.3227 446.986 46.688C451.252 47.968 454.196 49.2907 455.818 50.656L459.018 53.088C461.663 55.5627 462.986 57.6533 462.986 59.36C462.986 61.0667 461.962 63.4133 459.914 66.4C457.012 70.6667 454.026 72.8 450.954 72.8C449.162 72.8 446.943 71.9467 444.298 70.24C444.042 70.0693 443.53 69.6427 442.762 68.96C442.079 68.2773 441.439 67.7227 440.842 67.296C439.05 66.1867 436.746 65.632 433.93 65.632C431.199 65.632 428.895 66.3147 427.018 67.68C425.226 68.96 424.33 70.7947 424.33 73.184C424.33 75.488 425.396 77.3653 427.53 78.816C429.748 80.2667 432.479 81.248 435.722 81.76C438.964 82.272 442.506 83.0827 446.346 84.192C450.186 85.216 453.727 86.496 456.97 88.032C460.212 89.568 462.9 92.256 465.034 96.096C467.252 99.8507 468.362 104.501 468.362 110.048C468.362 115.595 467.252 120.501 465.034 124.768C462.815 128.949 459.914 132.192 456.33 134.496C449.418 139.019 442.036 141.28 434.186 141.28C430.175 141.28 426.378 140.811 422.794 139.872C419.21 138.848 416.308 137.611 414.09 136.16C409.567 133.429 406.41 130.784 404.618 128.224L403.466 126.816ZM513.351 95.2L505.031 94.688V112.352C505.031 114.656 505.372 116.32 506.055 117.344C506.823 118.368 508.188 118.88 510.151 118.88C512.199 118.88 513.735 118.965 514.759 119.136C515.868 119.221 517.02 119.605 518.215 120.288C520.177 121.397 521.159 124.256 521.159 128.864C521.159 134.24 519.964 137.525 517.575 138.72C516.295 139.317 515.143 139.701 514.119 139.872C513.18 139.957 511.772 140 509.895 140C501.02 140 494.279 137.995 489.671 133.984C485.063 129.973 482.759 123.189 482.759 113.632V94.688C481.137 94.944 479.388 95.072 477.51 95.072C475.633 95.072 474.055 94.3467 472.775 92.896C471.58 91.4453 470.983 88.9707 470.983 85.472C470.983 81.9733 471.196 79.456 471.623 77.92C472.049 76.2987 472.647 75.1467 473.415 74.464C474.78 73.3547 476.487 72.8 478.535 72.8L482.759 73.312V60.128C482.759 58.1653 482.801 56.7147 482.887 55.776C483.057 54.8373 483.484 53.8133 484.167 52.704C485.276 50.5707 488.561 49.504 494.023 49.504C499.825 49.504 503.281 51.0827 504.391 54.24C504.817 55.6053 505.031 57.7813 505.031 60.768V73.312C508.785 72.9707 511.601 72.8 513.479 72.8C515.441 72.8 516.892 72.8853 517.831 73.056C518.855 73.1413 520.007 73.5253 521.287 74.208C523.505 75.3173 524.615 78.6027 524.615 84.064C524.615 89.44 523.463 92.7253 521.159 93.92C519.879 94.5173 518.727 94.9013 517.703 95.072C516.764 95.1573 515.313 95.2 513.351 95.2ZM577.507 73.312C579.128 73.824 580.451 74.72 581.475 76C582.584 77.1947 583.139 79.1573 583.139 81.888C583.139 84.6187 582.328 87.6053 580.707 90.848C579.085 94.0907 576.739 95.712 573.667 95.712C572.131 95.712 570.637 95.3707 569.187 94.688C567.821 94.0053 565.987 93.664 563.683 93.664C561.379 93.664 559.203 94.4747 557.155 96.096C555.192 97.7173 554.211 99.68 554.211 101.984V128.864C554.211 130.827 554.125 132.32 553.955 133.344C553.869 134.283 553.485 135.392 552.803 136.672C551.523 138.891 548.195 140 542.819 140C538.723 140 535.779 139.275 533.987 137.824C532.621 136.629 531.853 134.795 531.683 132.32C531.683 131.467 531.683 130.229 531.683 128.608V83.68C531.683 81.7173 531.725 80.2667 531.811 79.328C531.981 78.304 532.365 77.1947 532.963 76C534.157 73.696 537.485 72.544 542.947 72.544C548.067 72.544 551.267 73.5253 552.547 75.488C553.485 76.8533 553.955 78.2613 553.955 79.712C554.381 79.1147 554.979 78.3893 555.747 77.536C556.6 76.6827 558.349 75.5307 560.995 74.08C563.64 72.6293 565.944 71.904 567.907 71.904C569.955 71.904 571.661 72.032 573.027 72.288C574.392 72.4587 575.885 72.8 577.507 73.312ZM651.332 98.272C651.332 103.477 650.009 107.36 647.364 109.92C644.804 112.395 641.945 113.632 638.788 113.632H608.452C608.452 116.021 609.86 118.027 612.676 119.648C615.492 121.269 618.308 122.08 621.124 122.08C626.073 122.08 629.956 121.568 632.772 120.544L634.18 120.032C636.228 119.093 637.934 118.624 639.3 118.624C642.03 118.624 644.377 120.544 646.34 124.384C647.449 126.688 648.004 128.651 648.004 130.272C648.004 137.867 638.916 141.664 620.74 141.664C614.425 141.664 608.793 140.597 603.844 138.464C598.98 136.245 595.182 133.344 592.452 129.76C587.076 122.848 584.388 115.125 584.388 106.592C584.388 95.84 587.844 87.264 594.756 80.864C601.753 74.3787 610.457 71.136 620.868 71.136C632.729 71.136 641.433 75.3173 646.979 83.68C649.881 88.1173 651.332 92.9813 651.332 98.272ZM624.324 101.984C627.566 101.984 629.188 100.619 629.188 97.888C629.188 95.9253 628.42 94.3467 626.884 93.152C625.433 91.9573 623.3 91.36 620.484 91.36C617.753 91.36 615.022 92.512 612.292 94.816C609.561 97.0347 608.196 99.424 608.196 101.984H624.324ZM703.459 79.712C703.971 74.9333 707.341 72.544 713.571 72.544C716.899 72.544 719.373 72.8 720.995 73.312C722.616 73.824 723.725 74.72 724.323 76C725.005 77.28 725.389 78.432 725.475 79.456C725.645 80.3947 725.731 81.8453 725.731 83.808V128.608C725.731 130.571 725.645 132.064 725.475 133.088C725.389 134.027 725.048 135.136 724.451 136.416C723.256 138.635 720.312 139.744 715.619 139.744C711.011 139.744 707.896 139.189 706.275 138.08C704.739 136.885 703.843 135.179 703.587 132.96C700.429 137.483 695.139 139.744 687.715 139.744C680.376 139.744 673.549 136.373 667.235 129.632C660.92 122.891 657.763 115.083 657.763 106.208C657.763 97.248 660.92 89.44 667.235 82.784C673.635 76.0427 680.632 72.672 688.227 72.672C691.128 72.672 693.773 73.184 696.163 74.208C698.552 75.232 700.216 76.2133 701.155 77.152C702.093 78.0053 702.861 78.8587 703.459 79.712ZM680.163 106.336C680.163 109.152 681.272 111.712 683.491 114.016C685.709 116.235 688.397 117.344 691.555 117.344C694.712 117.344 697.315 116.192 699.363 113.888C701.496 111.584 702.563 109.067 702.563 106.336C702.563 103.52 701.539 100.917 699.491 98.528C697.528 96.1387 694.84 94.944 691.427 94.944C688.099 94.944 685.368 96.1387 683.235 98.528C681.187 100.917 680.163 103.52 680.163 106.336ZM757.949 81.504C761.959 75.4453 766.781 72.416 772.413 72.416C781.117 72.416 787.602 76.128 791.869 83.552C792.807 82.272 793.917 80.9493 795.197 79.584C796.562 78.1333 798.695 76.5973 801.597 74.976C804.498 73.2693 807.485 72.416 810.557 72.416C817.383 72.416 823.101 75.0613 827.709 80.352C832.317 85.5573 834.621 94.2187 834.621 106.336V128.736C834.621 130.699 834.535 132.192 834.365 133.216C834.279 134.155 833.895 135.264 833.213 136.544C832.103 138.848 828.818 140 823.357 140C817.981 140 814.695 138.805 813.501 136.416C812.903 135.136 812.519 134.027 812.349 133.088C812.263 132.064 812.221 130.571 812.221 128.608V106.208C812.221 98.784 809.575 95.072 804.285 95.072C801.298 95.072 799.25 96.0533 798.141 98.016C797.117 99.9787 796.604 102.752 796.604 106.336V128.736C796.604 130.784 796.519 132.277 796.349 133.216C796.263 134.155 795.879 135.264 795.197 136.544C794.002 138.848 790.674 140 785.213 140C779.837 140 776.551 138.805 775.357 136.416C774.759 135.136 774.375 134.027 774.205 133.088C774.119 132.064 774.077 130.571 774.077 128.608V106.208C774.077 98.784 771.431 95.072 766.141 95.072C761.021 95.072 758.461 98.784 758.461 106.208V128.864C758.461 130.827 758.375 132.32 758.205 133.344C758.119 134.283 757.735 135.392 757.053 136.672C755.773 138.891 752.445 140 747.069 140C741.693 140 738.407 138.848 737.213 136.544C736.615 135.264 736.231 134.155 736.061 133.216C735.975 132.277 735.933 130.784 735.933 128.736V83.68C735.933 81.7173 735.975 80.2667 736.061 79.328C736.231 78.304 736.658 77.1947 737.341 76C738.621 73.696 741.65 72.544 746.429 72.544C751.207 72.544 754.322 73.312 755.773 74.848C757.223 76.384 757.949 78.6027 757.949 81.504Z" fill="white"/>
<line x1="341.944" y1="263.5" x2="609.944" y2="263.5" stroke="black" stroke-width="32" stroke-linecap="round"/>
</svg>
